<?xml version="1.0" standalone="no"?><!DOCTYPE svg PUBLIC "-//W3C//DTD SVG 1.1//EN" "http://www.w3.org/Graphics/SVG/1.1/DTD/svg11.dtd"><svg t="1658759196229" class="icon" viewBox="0 0 1024 1024" version="1.1" xmlns="http://www.w3.org/2000/svg" p-id="7846" xmlns:xlink="http://www.w3.org/1999/xlink" width="24" height="24"><defs><style type="text/css">@font-face { font-family: feedback-iconfont; src: url("//at.alicdn.com/t/font_1031158_u69w8yhxdu.woff2?t=1630033759944") format("woff2"), url("//at.alicdn.com/t/font_1031158_u69w8yhxdu.woff?t=1630033759944") format("woff"), url("//at.alicdn.com/t/font_1031158_u69w8yhxdu.ttf?t=1630033759944") format("truetype"); }
</style></defs><path d="M715.7 894.9c-5.4 0-10.6-1.9-14.6-5.6L368 581.7l280.6-158.9L741 866.7c2 9.6-2.9 19.3-12.4 24.7-4.2 2.4-8.6 3.5-12.9 3.5zM397.1 585.1l315.7 291.5c1.8 1.6 4.9 1 7.3-0.3 2.3-1.3 4.5-3.7 4-6.1l-87.6-420.6-239.4 135.5zM433.7 470.5l-4.3-2.4c-21.7-12.4-39.7-30.4-52.1-52.3-13.5-23.8-19.6-50.6-17.8-77.5l0.4-6.4 6.3-1.4c9.3-2.1 18.2-5.6 26.6-10.3 11.6-6.6 21.6-15.3 29.6-25.8 14.8-19.4 21.7-43.5 19.6-67.9l-0.6-6.4 6-2.4c64.1-25.3 138.2 0.9 172.2 61 12.4 21.8 18.6 46.6 18 71.6l-0.1 4.9-203.8 115.3z m-57.1-124.9c-0.4 21.5 5.1 42.7 15.8 61.7 10 17.7 24.3 32.6 41.4 43.3l186.6-105.7c-0.3-20.2-5.8-40.1-15.8-57.8-28.8-50.8-90.2-74-144.9-55.6 0.8 26.4-7.4 52.1-23.5 73.2-9.5 12.4-21.2 22.6-34.9 30.4-7.8 4.5-16.1 8-24.7 10.5z" fill="#845C28" p-id="7847"></path><path d="M327.6 617.1c-4.4 0-8.9-0.6-13.2-1.8-12.7-3.5-23.3-11.7-29.9-23.3-13.5-23.8-5.1-54 18.7-67.5l329.7-186.7c11.4-6.5 24.8-8.1 37.6-4.7 12.8 3.5 23.4 11.8 29.9 23.3s8.2 24.9 4.6 37.6c-3.5 12.7-11.8 23.3-23.3 29.8L352 610.7c-7.5 4.2-15.9 6.4-24.4 6.4z m-28-33.7c4.3 7.5 11.2 12.9 19.4 15.2 8.4 2.3 17.1 1.2 24.5-3l329.7-186.7c7.5-4.2 12.9-11.1 15.2-19.4 2.3-8.3 1.2-17-3-24.5s-11.1-12.9-19.4-15.2c-8.3-2.3-17-1.2-24.5 3L311.7 539.5c-15.4 8.8-20.9 28.5-12.1 43.9z" fill="#845C28" p-id="7848"></path><path d="M308.3 541.5l-4-1.8c-26.9-12.3-48.8-32.5-63.3-58.2-32.1-56.6-20.3-129.3 28-172.7l5.7-5.1 5.8 5c23.4 20.5 55.6 28.6 85.9 21.7l11.3-2.6-0.8 11.6c-1.6 23.6 3.8 47 15.6 67.8 10.8 19.1 26.6 34.9 45.6 45.8l13.2 7.5-143 81zM256 473c12 21.3 29.8 38.1 51.5 49.1l109.5-62c-16.2-11.7-29.7-26.8-39.6-44.3-11.6-20.5-17.8-43.4-18.1-66.6-29.8 3.8-60.2-4.3-84.1-22.4-37.9 38.4-46.1 98.7-19.2 146.2z" fill="#845C28" p-id="7849"></path><path d="M344.8 350.1c-27.6 0-54.7-9.9-75.8-28.4-9.8-8.5-18.1-18.6-24.6-30-31.3-55.3-11.8-125.7 43.5-157 26.7-15.1 57.8-19 87.4-10.7 29.6 8.2 54.3 27.5 69.5 54.3 8.2 14.5 13.1 30.2 14.5 46.6 2.5 28.6-5.7 57-23.1 79.9-9.5 12.4-21.2 22.6-34.9 30.4-9.8 5.5-20.3 9.6-31.2 12.1-8.3 1.9-16.8 2.8-25.3 2.8z m-85.3-66.9c5.5 9.7 12.5 18.2 20.9 25.5 23.5 20.5 55.6 28.6 86 21.7 9.3-2.1 18.2-5.6 26.5-10.3 11.6-6.6 21.6-15.3 29.6-25.8 14.8-19.4 21.7-43.5 19.6-67.9-1.2-14-5.3-27.3-12.3-39.6-12.9-22.8-33.8-39.1-59-46.1-25.2-7-51.6-3.7-74.3 9.1-47 26.6-63.6 86.4-37 133.4zM514.642 513.21l1.523-8.566L665.81 531.26l-1.523 8.566zM433.997 634.994l1.403-8.485 258.49 42.732-1.403 8.485zM591.885 782.89l1.32-8.6 126.91 19.48-1.32 8.598z" fill="#845C28" p-id="7850"></path></svg>