<?xml version="1.0" standalone="no"?><!DOCTYPE svg PUBLIC "-//W3C//DTD SVG 1.1//EN" "http://www.w3.org/Graphics/SVG/1.1/DTD/svg11.dtd"><svg t="1658759156876" class="icon" viewBox="0 0 1024 1024" version="1.1" xmlns="http://www.w3.org/2000/svg" p-id="6378" xmlns:xlink="http://www.w3.org/1999/xlink" width="24" height="24"><defs><style type="text/css">@font-face { font-family: feedback-iconfont; src: url("//at.alicdn.com/t/font_1031158_u69w8yhxdu.woff2?t=1630033759944") format("woff2"), url("//at.alicdn.com/t/font_1031158_u69w8yhxdu.woff?t=1630033759944") format("woff"), url("//at.alicdn.com/t/font_1031158_u69w8yhxdu.ttf?t=1630033759944") format("truetype"); }
</style></defs><path d="M773.2224 197.84817778c-3.584-1.72942222-10.01244445-5.60924445-12.74311111-12.48142223-13.4144-33.66684445-38.30897778-77.91502222-80.78222222-97.6896-32.65422222-15.17795555-72.73813333-6.05297778-97.47342222 22.26631112-21.2992 24.43946667-42.02951111 37.18257778-61.5992889 37.86524444-30.46968889 1.25155555-59.8016-27.76177778-77.09582222-45.02186666l-1.83182222-1.83182223c-16.00853333-15.90613333-38.05866667-22.81244445-58.99377778-18.6368-64.12515555 13.17546667-123.13031111 89.3952-146.24995555 122.73208889C92.00071111 279.36995555 5.80266667 405.35608889 5.80266667 542.208c0 221.47982222 227.13457778 401.66968889 506.31111111 401.66968889s506.31111111-180.18986667 506.31111111-401.66968889c0-142.38151111-91.65937778-271.12106667-245.20248889-344.35982222zM512.11377778 880.00284445c-243.95093333 0-442.42488889-151.52924445-442.42488889-337.79484445 0-112.66275555 73.54595555-217.6 196.73315556-280.72391111 8.8064-4.52835555 16.36124445-11.10471111 21.87946666-19.06915556 30.17386667-43.77031111 75.02506667-90.87431111 106.38222222-97.43928888 0.21617778 0.04551111 1.04675555 0.37546667 1.95697778 1.28568888l1.77493334 1.76355556c23.01724445 22.96035555 65.83182222 65.09226667 124.43875555 63.63591111 37.94488889-1.3312 74.1376-21.41297778 107.52-59.72195555 6.00746667-6.90631111 15.43964445-9.59146667 22.38008889-6.32604445 18.03377778 8.38542222 35.66933333 31.48231111 48.38968889 63.3856 7.9872 20.0704 23.82506667 36.60231111 44.58951111 46.50097778 130.7648 62.38435555 208.82773333 169.58577778 208.82773333 286.72-0.02275555 186.25422222-198.49671111 337.78346667-442.44764444 337.78346667z" fill="#666666" p-id="6379"></path><path d="M440.43377778 248.14933333c-9.13635555-15.09831111-28.76302222-19.87697778-43.86133333-10.77475555-31.1296 18.86435555-187.86986667 116.82702222-215.98435556 192.97848889-6.09848889 16.55466667 2.3552 34.9184 18.89848889 41.02826666 3.65226667 1.35395555 7.38417778 1.97973333 11.0592 1.97973334 12.98204445 0 25.20177778-7.9872 29.96906667-20.87822222 15.01866667-40.67555555 119.64871111-118.31751111 189.15555555-160.44942223 15.08693333-9.15911111 19.89973333-28.80853333 10.76337778-43.88408889z" fill="#666666" p-id="6380"></path><path d="M489.51751111 245.4528c-16.52053333-6.10986667-34.9184 2.26417778-41.07377778 18.81884445-9.50044445 25.53173333-56.88888889 155.4432-56.88888888 204.45866666 0 17.63555555 14.30186667 31.93742222 31.93742222 31.93742222 17.64693333 0 31.93742222-14.30186667 31.93742222-31.93742222 0-29.11573333 32.43804445-127.20355555 52.88391111-182.20373333 6.15537778-16.54328889-2.26417778-34.9184-18.79608889-41.07377778zM530.59128889 246.23786667c-15.50791111 8.38542222-21.2992 27.76177778-12.9024 43.26968888 34.53155555 63.92035555 69.74577778 149.34471111 66.42346666 175.9232-2.19591111 17.48764445 10.22862222 33.46204445 27.72764445 35.64657778 1.34257778 0.17066667 2.68515555 0.25031111 4.00497778 0.25031112 15.872 0 29.62773333-11.81013333 31.65297777-27.98933334 7.54346667-60.34773333-60.0064-189.01902222-73.6256-214.20942222-8.38542222-15.53066667-27.78453333-21.28782222-43.28106666-12.89102222zM635.17582222 232.448c-14.27911111-10.43342222-34.25848889-7.23626667-44.61226667 7.05422222-10.36515555 14.26773333-7.21351111 34.24711111 7.05422223 44.60088889 78.34737778 56.97991111 168.67555555 131.35644445 180.29226667 152.86044444 3.72053333 14.07431111 16.52053333 23.74542222 30.83377777 23.74542223 1.90008889 0 3.82293333-0.17066667 5.74577778-0.52337778 17.36248889-3.14026667 28.8768-19.77457778 25.71377778-37.13706667-5.75715555-31.76675555-74.752-95.89191111-205.02755556-190.60053333z" fill="#666666" p-id="6381"></path></svg>