<?xml version="1.0" standalone="no"?><!DOCTYPE svg PUBLIC "-//W3C//DTD SVG 1.1//EN" "http://www.w3.org/Graphics/SVG/1.1/DTD/svg11.dtd"><svg t="1658803701134" class="icon" viewBox="0 0 1024 1024" version="1.1" xmlns="http://www.w3.org/2000/svg" p-id="10502" xmlns:xlink="http://www.w3.org/1999/xlink" width="44" height="44"><defs><style type="text/css">@font-face { font-family: feedback-iconfont; src: url("//at.alicdn.com/t/font_1031158_u69w8yhxdu.woff2?t=1630033759944") format("woff2"), url("//at.alicdn.com/t/font_1031158_u69w8yhxdu.woff?t=1630033759944") format("woff"), url("//at.alicdn.com/t/font_1031158_u69w8yhxdu.ttf?t=1630033759944") format("truetype"); }
</style></defs><path d="M150.8 920.1L111.7 881c-6-6-6-15.7 0-21.7l695.7-695.7c6-6 15.7-6 21.7 0l39.1 39.1c6 6 6 15.7 0 21.7L172.5 920.1c-6 6-15.7 6-21.7 0z" fill="#E85642" p-id="10503"></path><path d="M833.6 503.7L528.1 198.2c-19.6-19.6-19.6-51.4 0-71.1 19.6-19.6 51.4-19.6 71.1 0l305.5 305.5c19.6 19.6 19.6 51.4 0 71.1-19.7 19.6-51.5 19.6-71.1 0zM688.6 648.7L383.1 343.1c-19.6-19.6-19.6-51.4 0-71.1 19.6-19.6 51.4-19.6 71.1 0l305.5 305.5c19.6 19.6 19.6 51.4 0 71.1-19.6 19.7-51.4 19.7-71.1 0.1zM543.7 793.6L238.2 488.1c-19.6-19.6-19.6-51.4 0-71.1 19.6-19.6 51.4-19.6 71.1 0l305.5 305.5c19.6 19.6 19.6 51.4 0 71.1-19.7 19.6-51.5 19.6-71.1 0z" fill="#F2F2F2" p-id="10504"></path><path d="M757.7 501.7L530 274c-16-16-16-41.9 0-57.9l87-87c16-16 41.9-16 57.9 0l227.7 227.7c16 16 16 41.9 0 57.9l-87 87c-15.9 16-41.9 16-57.9 0z" fill="#F2AF55" p-id="10505"></path><path d="M612.8 646.7L385.1 419c-16-16-16-41.9 0-57.9l87-87c16-16 41.9-16 57.9 0l227.7 227.7c16 16 16 41.9 0 57.9l-87 87c-16 16-41.9 16-57.9 0z" fill="#FF674B" p-id="10506"></path><path d="M467.8 791.6L240.1 563.9c-16-16-16-41.9 0-57.9l87-87c16-16 41.9-16 57.9 0l227.7 227.7c16 16 16 41.9 0 57.9l-87 87c-15.9 16-41.9 16-57.9 0z" fill="#E5A04C" p-id="10507"></path></svg>