<?xml version="1.0" standalone="no"?><!DOCTYPE svg PUBLIC "-//W3C//DTD SVG 1.1//EN" "http://www.w3.org/Graphics/SVG/1.1/DTD/svg11.dtd"><svg t="1658803567391" class="icon" viewBox="0 0 1024 1024" version="1.1" xmlns="http://www.w3.org/2000/svg" p-id="3783" xmlns:xlink="http://www.w3.org/1999/xlink" width="44" height="44"><defs><style type="text/css">@font-face { font-family: feedback-iconfont; src: url("//at.alicdn.com/t/font_1031158_u69w8yhxdu.woff2?t=1630033759944") format("woff2"), url("//at.alicdn.com/t/font_1031158_u69w8yhxdu.woff?t=1630033759944") format("woff"), url("//at.alicdn.com/t/font_1031158_u69w8yhxdu.ttf?t=1630033759944") format("truetype"); }
</style></defs><path d="M555.9 533.6c-0.4 0-0.8-0.3-0.9-0.7-14.5-40.6-15.9-85.9-3.9-127.5 12-42 36.4-75.6 68.7-94.6 18.5-10.9 40.6-16.7 63.8-16.7 39.9 0 81 17.4 95.6 40.4 0.2 0.4 0.2 0.9-0.1 1.2-0.2 0.2-0.5 0.3-0.8 0.3-0.1 0-0.3 0-0.4-0.1-21.8-10.1-43.8-15.2-65.5-15.2-24.4 0-48.8 6.4-72.4 19.2-31.9 17.2-85.1 65.1-83 192.7 0 0.5-0.3 0.9-0.8 1h-0.3zM348.8 559c-33.3 0-51.2-15.8-60.3-29-14.2-20.5-14.9-44.8-9.7-58.6 0.1-0.4 0.5-0.6 0.9-0.6 0.5 0 0.8 0.3 1 0.7 8.7 29.3 27.1 64.3 65.4 64.3 10.6 0 22.3-2.8 34.7-8.2 86.6-38.2 100.5-157.1 106.5-207.9 0.1-0.5 0.4-0.9 0.9-0.9s0.9 0.3 1 0.8c14.4 57.6 4.8 119-26.5 168.5-23.2 36.7-55.6 61.6-89 68.3-8.7 1.7-17.1 2.6-24.9 2.6z" fill="" p-id="3784"></path><path d="M391.7 892.8c-26.6 0-57.7-11.3-92.4-33.4-84.8-54.2-128.1-156.6-149.5-233-23.6-84.2-30-172.3-24-212.4 3.3-21.8 9.6-38.4 18.8-49.2 8.3-9.8 18.8-14.7 31.1-14.7 15.5 0 29.7 7.9 38.8 14.5 1.1 0.8 1.5 2.3 1 3.6-0.5 1.1-1.6 1.9-2.8 1.9h-0.4c-3-0.4-5.9-0.7-8.6-0.7-27.9 0-32.6 24.1-36.1 58.2-9.9 151.3 11.2 347.9 168.2 425.4 6.8 2.2 16.7 7.4 25.4 7.4 36.4 0 61.6-8.1 80.7-32.8 2.8-3.6 6.9-11.2 12.3-20.7 25.8-45 73.9-128.7 114.4-134.1h0.4c1.3 0 2.4 0.8 2.8 2.1 0.5 1.4-0.1 2.9-1.4 3.6-8.3 4.7-27.1 26.3-46.7 53.9-20.1 28.2-35.5 54.7-39.2 67.4-0.2 0.7-0.4 1.6-0.7 2.8-2.3 8.6-8.3 31.4-22 51.7-17.5 25.4-41 38.5-70.1 38.5z" fill="" p-id="3785"></path><path d="M288 679c-0.7 0-1.5-0.3-2.1-0.8-31.2-29.6-56.1-76.7-68.5-129-12.8-54.4-11.3-109.4 4.2-155 0.4-1.2 1.6-2 2.8-2h0.2c1.4 0.1 2.5 1.1 2.7 2.5 2.5 14.1 4.9 34.1 7.7 57.3 8.7 73 21.9 183.3 55.1 222.3 1 1.2 0.9 3-0.2 4.1-0.4 0.3-1.1 0.6-1.9 0.6zM387 777.1c-13.3 0-25.1-5.2-32.4-14.2-3.8-4.7-6.9-8.7-9.7-12.3-10.9-14-17.5-22.5-43.7-45.5-1.1-0.9-1.3-2.5-0.7-3.7 0.5-1 1.6-1.6 2.6-1.6 0.3 0 0.5 0 0.8 0.1 20.9 5.9 40.5 18.5 54.8 27.6 1.9 1.2 3.6 2.3 5.3 3.4 4.7 3 10 4.5 15.8 4.5 14.2 0 28.8-9.5 37.2-24.3 6.8-11.9 32.5-51.9 69.7-93.1 48.8-54 97.2-88.4 143.9-102.2 0.3-0.1 0.6-0.1 0.9-0.1 1.2 0 2.3 0.7 2.8 1.9 0.6 1.4 0 3.1-1.3 3.8-37 20-80.6 59-122.7 109.7-35.1 42.2-65.4 88.4-77.2 117.5-7.1 17.1-25.5 28.5-46.1 28.5zM272.4 364.5c-0.6 0-1.2-0.2-1.7-0.5-1.3-0.9-1.7-2.5-1-3.9 1.3-2.5 3.7-5.1 7.3-7.8 26.9-25 90.7-55.4 166.5-79.5 83-26.4 168.5-41.5 234.4-41.5 33 0 61.4 3.7 84.5 10.9 1.4 0.4 2.3 1.9 2.1 3.4-0.2 1.5-1.5 2.5-3 2.5h-0.1c-2.2-0.1-4.6-0.1-6.9-0.1-55.4 0-156.3 15.4-263.1 40.1-104.4 24.1-187 51.1-210.4 68.8-2.4 2.2-4.5 4.4-6.2 6.5-0.6 0.7-1.5 1.1-2.4 1.1zM610.2 684.5c-7.9 0-14.8-2.1-19.4-5.9-11.3-9.2-10.2-16.5-9.2-19.3 1.3-3.7 4.8-6.1 8.8-6.1 1.8 0 3.6 0.5 5.2 1.4 2.2 1.2 4.6 1.8 7.2 1.8 8 0 15.2-5.6 16.9-10.8 3.2-10 4-26.8 4.7-43.1 0.3-5.7 0.5-11.6 0.9-17.1 2.7-61.4 62.2-101.5 131-147.9 14.1-9.5 28.8-19.4 43.5-29.8 51-36.1 49.4-72.5 43.9-91.1-7-23.7-25.4-38.8-33.1-39.1-1.5-0.1-2.8-1.3-2.9-2.8-0.1-1.5 1-2.9 2.5-3.2 4.4-0.8 8.7-1.2 12.8-1.2 14.8 0 27.3 5 37.1 14.8 13.2 13.3 20.5 34.8 20.4 60.7-0.1 48.2-90 104.5-123.9 125.7-5.1 3.2-9.1 5.7-10.2 6.6-1.2 1-3.6 2.5-7.2 4.8-24.4 15.5-98.7 62.7-83.6 119.5 8.8 33.2 1 52.7-7.1 63.3-9.2 11.7-23.5 18.8-38.3 18.8z" fill="" p-id="3786"></path></svg>