<?xml version="1.0" standalone="no"?><!DOCTYPE svg PUBLIC "-//W3C//DTD SVG 1.1//EN" "http://www.w3.org/Graphics/SVG/1.1/DTD/svg11.dtd"><svg t="1658803666753" class="icon" viewBox="0 0 1024 1024" version="1.1" xmlns="http://www.w3.org/2000/svg" p-id="9488" xmlns:xlink="http://www.w3.org/1999/xlink" width="44" height="44"><defs><style type="text/css">@font-face { font-family: feedback-iconfont; src: url("//at.alicdn.com/t/font_1031158_u69w8yhxdu.woff2?t=1630033759944") format("woff2"), url("//at.alicdn.com/t/font_1031158_u69w8yhxdu.woff?t=1630033759944") format("woff"), url("//at.alicdn.com/t/font_1031158_u69w8yhxdu.ttf?t=1630033759944") format("truetype"); }
</style></defs><path d="M588.068571 51.2c-40.228571 0-79.725714 2.925714-117.76 8.045714-5.851429 0.731429-10.24 5.851429-9.508571 12.434286 0.731429 5.12 5.12 9.508571 10.971429 9.508571h1.462857c36.571429-5.12 75.337143-7.314286 114.834285-7.314285 5.851429 0 10.971429-5.12 10.971429-10.971429S593.92 51.2 588.068571 51.2zM408.137143 81.188571c-1.462857-5.851429-7.314286-9.508571-13.165714-8.045714-100.205714 25.6-157.988571 68.022857-157.988572 116.297143 0 5.851429 5.12 10.971429 10.971429 10.971429s10.971429-5.12 10.971428-10.971429c0-36.571429 54.125714-73.142857 141.897143-95.817143 5.12-0.731429 8.777143-6.582857 7.314286-12.434286z" p-id="9489"></path><path d="M588.068571 0C445.44 0 311.588571 28.525714 231.131429 76.068571 88.502857 104.594286 0 163.84 0 230.4 0 269.897143 29.988571 306.468571 85.577143 336.457143v212.114286c0 5.851429 5.12 10.971429 10.971428 10.971428 32.914286 0 59.977143 27.062857 59.977143 59.977143 0 32.914286-27.062857 59.977143-59.977143 59.977143-5.851429 0-10.971429 5.12-10.971428 10.971428v321.828572c0 5.851429 5.12 10.971429 10.971428 10.971428h151.405715c0.731429 0 2.194286 0 2.925714-0.731428 0.731429 0 2.194286 0.731429 2.925714 0.731428h668.525715c5.851429 0 10.971429-5.12 10.971428-10.971428V293.302857c59.977143-31.451429 91.428571-70.217143 91.428572-111.908571C1024 79.725714 832.365714 0 588.068571 0zM107.52 1000.594286V699.977143c39.497143-5.12 70.948571-39.497143 70.948571-80.457143s-30.72-75.337143-70.948571-80.457143V329.874286c0-4.388571-2.194286-8.045714-5.851429-9.508572-51.931429-26.331429-80.457143-58.514286-80.457142-89.965714 0-48.274286 63.634286-93.622857 166.034285-122.148571l-1.462857 1.462857-5.851428 5.851428-2.194286 2.194286c-2.194286 2.194286-3.657143 4.388571-5.851429 6.582857 0 0.731429-0.731429 0.731429-0.731428 1.462857-2.194286 2.925714-3.657143 5.12-5.12 8.045715-0.731429 0.731429-0.731429 1.462857-1.462857 2.194285-1.462857 2.194286-2.194286 4.388571-3.657143 5.851429-0.731429 0.731429-0.731429 1.462857-1.462857 2.194286-1.462857 2.194286-2.194286 5.12-2.925715 7.314285v0.731429c-0.731429 2.925714-1.462857 5.851429-2.194285 8.045714 0 0.731429 0 1.462857-0.731429 2.194286-0.731429 2.194286-0.731429 4.388571-1.462857 6.582857v2.194286c0 2.925714-0.731429 5.851429-0.731429 8.777143 0 41.691429 31.451429 80.457143 91.428572 111.908571v656.091429c-5.851429 13.165714-8.777143 27.062857-8.777143 40.96 0 3.657143 0 7.314286 0.731428 10.971428H107.52z m315.977143-21.211429c0-1.462857 0.731429-2.925714 0.731428-4.388571 0-1.462857 0.731429-2.925714 0.731429-4.388572 0-1.462857 0.731429-2.925714 1.462857-4.388571 0.731429-1.462857 0.731429-2.925714 1.462857-4.388572 0.731429-1.462857 0.731429-2.925714 1.462857-4.388571 0.731429-1.462857 1.462857-2.925714 2.194286-5.12l2.194286-4.388571c0-0.731429 0.731429-1.462857 0.731428-2.194286 1.462857-2.194286 2.194286-4.388571 3.657143-6.582857 0-0.731429 0.731429-0.731429 0.731429-1.462857 1.462857-1.462857 2.194286-2.925714 3.657143-5.12l2.194285-2.194286c0.731429-1.462857 2.194286-2.194286 2.925715-3.657143l2.194285-2.194286c1.462857-1.462857 2.925714-2.925714 5.12-4.388571 1.462857-0.731429 2.194286-2.194286 3.657143-2.925714 0.731429-0.731429 1.462857-0.731429 2.194286-1.462858 1.462857-0.731429 2.925714-2.194286 3.657143-2.925714 0.731429 0 0.731429-0.731429 1.462857-0.731428 2.925714-1.462857 5.851429-3.657143 8.777143-5.12 0 0 0.731429 0 0.731428-0.731429l4.388572-2.194286c0.731429 0 1.462857-0.731429 2.194286-0.731428 1.462857-0.731429 2.925714-0.731429 4.388571-1.462857 2.194286-0.731429 4.388571-1.462857 6.582857-1.462858 0.731429 0 2.194286 0 2.925714-0.731428 1.462857 0 3.657143-0.731429 5.12-0.731429h2.925715c2.925714 0 5.12-0.731429 8.045714-0.731428 49.005714 0 88.502857 39.497143 88.502857 88.502857 0 3.657143 0 6.582857-0.731428 10.24V999.131429H424.228571v-0.731429-2.925714c0-2.194286-0.731429-5.12-0.731428-7.314286v-1.462857-5.12c-0.731429 0-0.731429-0.731429 0-2.194286z m493.714286-702.171428c-3.657143 2.194286-5.851429 5.851429-5.851429 9.508571v714.605714H620.982857v-1.462857c0-3.657143 0.731429-7.314286 0.731429-10.971428 0-60.708571-49.737143-110.445714-110.445715-110.445715-3.657143 0-6.582857 0-9.508571 0.731429h-2.925714c-2.194286 0-4.388571 0.731429-6.582857 0.731428-1.462857 0-2.194286 0.731429-3.657143 0.731429-2.925714 0.731429-5.12 1.462857-8.045715 2.194286-1.462857 0.731429-3.657143 1.462857-5.12 1.462857-0.731429 0.731429-2.194286 0.731429-2.925714 1.462857-2.194286 0.731429-3.657143 1.462857-5.851428 2.194286-0.731429 0-0.731429 0.731429-1.462858 0.731428-3.657143 1.462857-7.314286 3.657143-10.24 5.851429-0.731429 0.731429-1.462857 0.731429-2.194285 1.462857-1.462857 0.731429-2.925714 2.194286-4.388572 2.925714-0.731429 0.731429-2.194286 1.462857-2.925714 2.194286-1.462857 0.731429-2.925714 2.194286-3.657143 2.925714-2.194286 1.462857-4.388571 3.657143-5.851428 5.851429l-2.194286 2.194286c-1.462857 1.462857-2.925714 2.925714-4.388572 5.12l-2.194285 2.194285c-1.462857 2.194286-3.657143 4.388571-5.12 6.582857l-0.731429 0.731429c-1.462857 2.925714-3.657143 5.12-5.12 8.045714-0.731429 0.731429-0.731429 1.462857-0.731428 2.194286-0.731429 1.462857-1.462857 2.194286-2.194286 3.657143 0 0.731429-0.731429 1.462857-0.731429 2.194286-0.731429 2.194286-1.462857 3.657143-2.194285 5.851428-0.731429 1.462857-1.462857 3.657143-2.194286 5.12-0.731429 2.194286-1.462857 3.657143-1.462857 5.851429-0.731429 1.462857-0.731429 3.657143-1.462857 5.12-0.731429 2.194286-0.731429 4.388571-1.462858 6.582857 0 1.462857-0.731429 3.657143-0.731428 5.12v11.702857c0 4.388571 0 8.045714 0.731428 12.434286h-138.971428V286.72c0-4.388571-2.194286-8.045714-5.851429-9.508571-54.857143-27.794286-85.577143-62.171429-85.577143-95.817143 0-2.194286 0-4.388571 0.731429-7.314286 0.731429-4.388571 1.462857-8.777143 2.925714-13.165714 1.462857-4.388571 3.657143-8.777143 5.851429-12.434286 12.434286-21.942857 36.571429-40.228571 57.051428-52.662857C318.171429 49.005714 447.634286 21.211429 588.068571 21.211429c224.548571 0 414.72 73.142857 414.72 160.182857 0 33.645714-30.72 67.291429-85.577142 95.817143z" p-id="9490"></path><path d="M428.617143 403.748571c-34.377143 0-62.902857 27.794286-62.902857 62.902858 0 34.377143 27.794286 62.902857 62.902857 62.902857s62.902857-27.794286 62.902857-62.902857c0-34.377143-27.794286-62.902857-62.902857-62.902858z m0 103.862858c-22.674286 0-40.96-18.285714-40.96-40.96 0-22.674286 18.285714-40.96 40.96-40.96 22.674286 0 40.96 18.285714 40.96 40.96 0.731429 22.674286-17.554286 40.96-40.96 40.96zM795.794286 532.48c-34.377143 0-62.902857 27.794286-62.902857 62.902857s27.794286 62.902857 62.902857 62.902857 62.902857-27.794286 62.902857-62.902857-28.525714-62.902857-62.902857-62.902857z m0 103.862857c-22.674286 0-40.96-18.285714-40.96-40.96s18.285714-40.96 40.96-40.96c22.674286 0 40.96 18.285714 40.96 40.96s-18.285714 40.96-40.96 40.96z" p-id="9491"></path></svg>