<?xml version="1.0" standalone="no"?><!DOCTYPE svg PUBLIC "-//W3C//DTD SVG 1.1//EN" "http://www.w3.org/Graphics/SVG/1.1/DTD/svg11.dtd"><svg t="1658759139095" class="icon" viewBox="0 0 1024 1024" version="1.1" xmlns="http://www.w3.org/2000/svg" p-id="3973" xmlns:xlink="http://www.w3.org/1999/xlink" width="24" height="24"><defs><style type="text/css">@font-face { font-family: feedback-iconfont; src: url("//at.alicdn.com/t/font_1031158_u69w8yhxdu.woff2?t=1630033759944") format("woff2"), url("//at.alicdn.com/t/font_1031158_u69w8yhxdu.woff?t=1630033759944") format("woff"), url("//at.alicdn.com/t/font_1031158_u69w8yhxdu.ttf?t=1630033759944") format("truetype"); }
</style></defs><path d="M941.617502 768.180663l-10.839803-18.78899-64.316161-112.011292c0-0.722653-0.722653-0.722653-0.722653-1.445307L563.669725 111.288638l-7.226535-12.285109c-8.671842-15.898377-25.292872-25.292872-43.35921-25.292873s-34.687368 9.394495-43.359209 25.292873l-380.115738 656.892025-5.058574 8.671842-1.445307 2.16796c-13.007763 22.402258-6.503881 51.308398 14.45307 66.484122 61.425547 43.35921 197.284404 116.347212 414.803105 116.347212h1.445307c216.796048 0 351.932251-72.265349 413.357798-115.624559 20.956951-14.45307 27.460833-43.35921 14.45307-65.761468zM640.993649 347.59633L753.00494 541.99012l-2.890614-5.058574c-17.343684 33.964714-52.031052 57.812279-93.222301 57.812279-57.812279 0-104.784757-46.972477-104.784756-104.784757s46.972477-104.784757 104.784756-104.784756h6.503882l-22.402258-37.577982zM444.431898 242.811574l-7.226535 12.285109c26.738179 9.394495 46.249824 34.687368 46.249824 64.316161 0 37.577982-31.0741 68.652082-68.652082 68.652082-17.343684 0-33.242061-6.503881-44.804516-16.62103l74.433309-128.632322zM246.424841 583.904023c2.890614 54.199012 46.972477 96.835568 101.894143 96.835568 56.366972 0 101.894143-45.52717 101.894142-101.894143S404.685956 476.951306 348.318984 476.951306c-16.62103 0-32.519407 4.335921-46.249824 11.562455l41.913903-72.988002c20.234298 15.175723 44.804517 23.124912 70.097389 23.124911 65.761468 0 119.237826-53.476359 119.237826-119.237826 0-47.695131-28.183486-89.609033-70.820042-108.398024l49.863091-86.718419 1.445307 2.890614 120.683133 209.569513C559.333804 347.59633 501.521524 411.912491 501.521524 489.959068c0 85.273112 69.374735 154.647848 154.647848 154.647848 47.695131 0 92.499647-22.402258 121.405787-59.257586l43.359209 74.433309c-0.722653 0.722653-54.199012 46.972477-164.764996 72.26535 0-1.445307 0-2.16796-0.722654-3.613268-13.007763-55.644319-62.1482-94.667608-119.237826-94.667607-60.702893 0-112.011291 43.35921-120.683133 104.062103v2.16796C270.272406 719.762879 202.342978 659.059986 202.342978 659.059986l44.081863-75.155963z m50.585745-5.058575c0-28.183486 23.124912-52.031052 52.031051-52.031051 28.183486 0 52.031052 23.124912 52.031052 52.031051s-23.124912 52.031052-52.031052 52.031052-52.031052-23.124912-52.031051-52.031052z m202.342978 169.100918H491.404375c-4.335921 0-9.394495 0-13.730416-0.722654h-5.781228c-2.16796 0-3.613267 0-5.781228-0.722653 5.058574-34.687368 34.687368-60.702893 70.820043-60.702894 33.964714 0 62.1482 23.847565 70.097388 55.644319-28.90614 4.335921-60.702893 7.226535-95.390261 7.226535-4.335921-0.722653-7.949188-0.722653-12.285109-0.722653z m13.730416 151.757233h-1.445307c-207.401553 0-334.588567-71.542696-385.896965-106.952717 2.16796-3.613267 4.335921-7.226535 5.781228-10.839802l44.804516-77.323924c12.285109 9.394495 39.023289 28.183486 80.937192 46.249824 60.702893 26.015526 128.632322 41.913903 203.788285 46.249823h6.503881c4.335921 0 8.671842 0.722653 12.28511 0.722654H510.91602c93.944954 0 179.218066-15.898377 252.928722-47.695131 41.913903-18.066337 67.929428-36.132675 80.937192-45.52717l39.745942 69.374735 10.839802 18.788991c-48.417784 36.132675-175.604799 106.952717-382.283698 106.952717z" p-id="3974"></path></svg>