<?xml version="1.0" standalone="no"?><!DOCTYPE svg PUBLIC "-//W3C//DTD SVG 1.1//EN" "http://www.w3.org/Graphics/SVG/1.1/DTD/svg11.dtd"><svg t="1658759093059" class="icon" viewBox="0 0 1024 1024" version="1.1" xmlns="http://www.w3.org/2000/svg" p-id="2095" width="24" height="24" xmlns:xlink="http://www.w3.org/1999/xlink"><defs><style type="text/css">@font-face { font-family: feedback-iconfont; src: url("//at.alicdn.com/t/font_1031158_u69w8yhxdu.woff2?t=1630033759944") format("woff2"), url("//at.alicdn.com/t/font_1031158_u69w8yhxdu.woff?t=1630033759944") format("woff"), url("//at.alicdn.com/t/font_1031158_u69w8yhxdu.ttf?t=1630033759944") format("truetype"); }
</style></defs><path d="M598.683 836.532c-52.478 0-103.396-10.282-151.342-30.562-46.3-19.583-87.877-47.614-123.577-83.313-35.7-35.7-63.73-77.277-83.313-123.577-20.279-47.945-30.562-98.864-30.562-151.342s10.282-103.397 30.562-151.342c19.583-46.3 47.614-87.877 83.313-123.577s77.277-63.73 123.577-83.313c47.945-20.279 98.864-30.562 151.342-30.562 52.479 0 103.397 10.282 151.343 30.562 46.3 19.583 87.877 47.614 123.576 83.313 35.7 35.7 63.73 77.277 83.313 123.577 20.279 47.945 30.562 98.864 30.562 151.342s-10.282 103.397-30.562 151.342c-19.583 46.3-47.613 87.877-83.313 123.577-35.699 35.699-77.276 63.73-123.576 83.313-47.946 20.28-98.865 30.562-151.343 30.562z m0-737.588c-93.166 0-180.756 36.281-246.634 102.16-65.878 65.878-102.159 153.468-102.159 246.634 0 93.167 36.281 180.756 102.159 246.635 65.879 65.878 153.468 102.159 246.634 102.159s180.756-36.281 246.635-102.159c65.878-65.879 102.159-153.469 102.159-246.635s-36.281-180.756-102.159-246.634c-65.88-65.879-153.469-102.16-246.635-102.16z" p-id="2096"></path><path d="M609.2 838.835a393.296 393.296 0 0 1-43.459-2.424c-105.111-11.68-193.289-53.928-255-122.179-32.465-35.905-57.507-78.827-74.428-127.574-17.534-50.511-26.424-107.59-26.424-169.652 0-11.046 8.954-20 20-20s20 8.954 20 20c0 57.587 8.146 110.253 24.212 156.535 15.152 43.65 37.462 81.96 66.31 113.864 55.055 60.889 134.501 98.667 229.749 109.25 50.944 5.661 100.206 0.472 146.418-15.426 42.857-14.743 81.982-38.218 116.288-69.771 36.448-33.523 66.265-75.554 86.225-121.547 19.848-45.733 29.666-94.708 28.394-141.631-1.977-72.93-33.431-147.437-86.295-204.417-26.21-28.251-56.203-50.927-89.146-67.396-34.217-17.107-70.037-26.661-106.466-28.395-57.076-2.723-111.794 16.953-154.074 55.39-42.281 38.437-67.062 91.038-69.78 148.113-4.384 92.055 66.942 170.514 158.997 174.897 71.413 3.406 132.331-51.951 135.732-123.393 1.268-26.619-7.906-52.138-25.832-71.857s-42.458-31.276-69.076-32.543c-20.242-0.971-39.621 6.008-54.604 19.63-14.984 13.622-23.767 32.264-24.729 52.492-1.486 31.202 22.69 57.795 53.893 59.281 22.795 1.097 42.156-16.55 43.239-39.309 0.526-11.033 9.888-19.553 20.929-19.026 11.033 0.526 19.552 9.896 19.026 20.929-2.134 44.791-40.355 79.494-85.097 77.361-53.234-2.536-94.48-47.906-91.945-101.139 1.472-30.9 14.888-59.378 37.777-80.187 22.891-20.81 52.529-31.46 83.414-29.987 37.291 1.775 71.659 17.967 96.771 45.591 25.113 27.625 37.965 63.375 36.189 100.666-4.32 90.733-79.524 161.635-169.422 161.64-2.713 0-5.43-0.064-8.168-0.194-114.086-5.433-202.482-102.669-197.05-216.755 3.226-67.748 32.642-130.185 82.828-175.809 50.187-45.624 115.137-68.974 182.884-65.748 42.024 2.001 83.223 12.96 122.451 32.572 37.253 18.625 71.094 44.185 100.582 75.969 29.166 31.438 52.436 67.182 69.163 106.24 17.302 40.4 26.652 82.22 27.793 124.299 2.923 107.774-44.75 217.569-127.524 293.702-69.511 63.935-157.274 97.937-250.745 97.938z" p-id="2097"></path><path d="M80.627 949.863a19.936 19.936 0 0 1-14.142-5.857c-7.811-7.811-7.811-20.475 0-28.285l217.314-217.314c7.811-7.811 20.474-7.812 28.284-0.001s7.811 20.475 0 28.284L94.769 944.006a19.94 19.94 0 0 1-14.142 5.857zM814.403 622.99a19.909 19.909 0 0 1-11.685-3.782c-8.958-6.463-10.981-18.963-4.519-27.921a244.197 244.197 0 0 0 28.239-51.062c10.434-25.73 16.395-52.904 17.716-80.765 0.523-11.034 9.9-19.55 20.925-19.03 11.033 0.523 19.554 9.892 19.03 20.925-1.536 32.383-8.468 63.976-20.603 93.901a284.237 284.237 0 0 1-32.868 59.433c-3.908 5.419-10.028 8.301-16.235 8.301zM669.781 723.852c-8.769 0-16.812-5.81-19.265-14.672-2.944-10.646 3.298-21.664 13.943-24.609a245.135 245.135 0 0 0 37.159-13.599c10.034-4.626 21.912-0.24 26.536 9.79 4.624 10.031 0.241 21.912-9.79 26.536a285.357 285.357 0 0 1-43.239 15.825 20.033 20.033 0 0 1-5.344 0.729z" p-id="2098"></path></svg>