<?xml version="1.0" standalone="no"?><!DOCTYPE svg PUBLIC "-//W3C//DTD SVG 1.1//EN" "http://www.w3.org/Graphics/SVG/1.1/DTD/svg11.dtd"><svg t="1658759224404" class="icon" viewBox="0 0 1024 1024" version="1.1" xmlns="http://www.w3.org/2000/svg" p-id="9359" xmlns:xlink="http://www.w3.org/1999/xlink" width="24" height="24"><defs><style type="text/css">@font-face { font-family: feedback-iconfont; src: url("//at.alicdn.com/t/font_1031158_u69w8yhxdu.woff2?t=1630033759944") format("woff2"), url("//at.alicdn.com/t/font_1031158_u69w8yhxdu.woff?t=1630033759944") format("woff"), url("//at.alicdn.com/t/font_1031158_u69w8yhxdu.ttf?t=1630033759944") format("truetype"); }
</style></defs><path d="M816.82944 731.32032H232.94976c-54.55872 0-98.93888 44.288-98.93888 98.74944 0 54.47168 44.38016 98.75968 98.93888 98.75968h583.87968c54.55872 0 98.95424-44.288 98.95424-98.75968 0-54.46144-44.3904-98.74944-98.95424-98.74944z m0 149.8368H232.94976c-28.27264 0-51.27168-22.90176-51.27168-51.08736 0-28.18048 22.99392-51.08224 51.27168-51.08224h583.87968c28.26752 0 51.28704 22.90176 51.28704 51.08224 0 28.1856-23.0144 51.08736-51.28704 51.08736zM525.96224 101.9136c-219.78624 0-391.94624 164.54656-391.94624 374.58432v23.8336h781.7728v-23.8336c-0.00512-210.04288-171.23328-374.58432-389.82656-374.58432zM182.53312 452.66432c12.46208-171.78112 158.81728-303.08352 343.424-303.08352 183.46496 0 328.91904 131.30752 341.30432 303.08352H182.53312zM243.11296 671.14496c52.57728 0 69.31968-27.74528 81.54112-48.01024 10.77248-17.87392 17.27488-28.6464 51.19488-28.6464 34.08896 0 41.23136 10.85952 53.03808 28.86656 13.25056 20.16768 31.40608 47.79008 85.33504 47.79008 54.30784 0 72.58624-27.83744 85.93408-48.13312 11.60192-17.69472 18.60096-28.36992 50.8672-28.5184h0.73216c33.7152 0 42.99776 12.44672 56.97536 31.21664 14.29504 19.17952 33.82784 45.44 81.11104 45.44h0.76288c89.84576-0.55808 115.85024-64.39424 116.90496-67.09248 4.74624-12.1344-1.1776-25.60512-13.22496-30.54592-12.02688-4.9664-25.89696 0.8448-31.01696 12.8256-0.65536 1.4848-16.4608 36.80256-72.96 37.15072-25.15456-0.15872-30.67904-9.22112-43.34592-26.26048-15.85664-21.29408-37.5296-50.40128-95.2832-50.40128h-0.90624c-57.82016 0.31232-76.68224 29.05088-90.46528 50.02752-11.27936 17.17248-17.50016 26.63424-46.08 26.63424-28.2112 0-33.98656-8.79104-45.48096-26.2912-13.96736-21.25824-33.08544-50.37056-92.88704-50.37056-60.84096 0-78.85824 29.88544-92.01664 51.68128-10.33728 17.16224-15.0528 24.98048-40.71936 24.98048-61.19936 0-76.87168-34.60608-77.7728-36.75136-4.68992-12.10368-18.2784-18.304-30.47936-13.71648a23.81312 23.81312 0 0 0-14.10048 30.60224c1.01376 2.75968 26.04544 67.52256 122.3424 67.52256z" p-id="9360"></path></svg>